<svg width="41" height="51" viewBox="0 0 41 51" fill="none" xmlns="http://www.w3.org/2000/svg">
<path fill-rule="evenodd" clip-rule="evenodd" d="M21.8623 48.7558L21.8348 48.7604L21.672 48.8407L21.6261 48.8498L21.594 48.8407L21.4312 48.7581C21.4067 48.752 21.3883 48.7566 21.3761 48.7719L21.3669 48.7948L21.3279 49.7764L21.3394 49.8223L21.3623 49.8521L21.6009 50.0218L21.6353 50.031L21.6628 50.0218L21.9013 49.8521L21.9289 49.8154L21.938 49.7764L21.899 48.7971C21.8929 48.7726 21.8807 48.7589 21.8623 48.7558ZM22.4678 48.4966L22.4357 48.5012L22.0137 48.7145L21.9908 48.7375L21.9839 48.7627L22.0252 49.7489L22.0366 49.7764L22.055 49.7948L22.516 50.0058C22.545 50.0134 22.5672 50.0073 22.5825 49.9874L22.5917 49.9553L22.5137 48.5471C22.5061 48.518 22.4908 48.5012 22.4678 48.4966ZM20.828 48.5012C20.8178 48.4951 20.8058 48.4931 20.7942 48.4957C20.7827 48.4982 20.7726 48.5052 20.766 48.515L20.7523 48.5471L20.6743 49.9553C20.6758 49.9828 20.6888 50.0012 20.7133 50.0104L20.7477 50.0058L21.2087 49.7925L21.2316 49.7741L21.2385 49.7489L21.2798 48.7627L21.2729 48.7352L21.25 48.7122L20.828 48.5012Z" fill="#92D9BB"/>
<path fill-rule="evenodd" clip-rule="evenodd" d="M4.44525 16.0548C4.44525 11.7968 6.13672 7.71318 9.14757 4.70233C12.1584 1.69148 16.242 0 20.5 0C24.758 0 28.8416 1.69148 31.8524 4.70233C34.8633 7.71318 36.5548 11.7968 36.5548 16.0548V24.6876L40.7336 33.0453C40.9259 33.4299 41.0168 33.8574 40.9975 34.2871C40.9781 34.7167 40.8493 35.1343 40.6232 35.5001C40.397 35.866 40.0811 36.1679 39.7055 36.3774C39.3298 36.5868 38.9068 36.6966 38.4767 36.6966H29.3852C28.875 38.665 27.7256 40.4083 26.1175 41.6527C24.5093 42.8972 22.5334 43.5725 20.5 43.5725C18.4666 43.5725 16.4907 42.8972 14.8825 41.6527C13.2744 40.4083 12.125 38.665 11.6148 36.6966H2.52326C2.09317 36.6966 1.67021 36.5868 1.29454 36.3774C0.918871 36.1679 0.602972 35.866 0.376846 35.5001C0.15072 35.1343 0.0218751 34.7167 0.00254878 34.2871C-0.0167775 33.8574 0.0740565 33.4299 0.266424 33.0453L4.44525 24.6876V16.0548ZM16.5276 36.6966C16.9302 37.3938 17.5093 37.9729 18.2066 38.3754C18.9039 38.778 19.6948 38.9899 20.5 38.9899C21.3052 38.9899 22.0961 38.778 22.7934 38.3754C23.4907 37.9729 24.0698 37.3938 24.4724 36.6966H16.5276ZM20.5 4.58707C17.4586 4.58707 14.5417 5.79527 12.3911 7.94588C10.2405 10.0965 9.03232 13.0133 9.03232 16.0548V24.6876C9.03227 25.3994 8.86659 26.1014 8.54838 26.738L5.86495 32.1095H35.1373L32.4539 26.738C32.1349 26.1016 31.9684 25.3996 31.9677 24.6876V16.0548C31.9677 13.0133 30.7595 10.0965 28.6089 7.94588C26.4583 5.79527 23.5414 4.58707 20.5 4.58707Z" fill="#92D9BB"/>
</svg>
