<svg width="59" height="43" viewBox="0 0 59 43" fill="none" xmlns="http://www.w3.org/2000/svg">
<path d="M39.2443 21.5C37.6863 21.5 36.2205 20.6738 35.4277 19.3519L29.5001 9.56638L23.5816 19.3519C22.7796 20.683 21.3138 21.5092 19.7558 21.5092C19.341 21.5092 18.9262 21.4541 18.5297 21.3347L5.90006 17.7363V34.0761C5.90006 35.4256 6.82193 36.6006 8.13099 36.9218L28.0619 41.8881C29.0022 42.1176 29.9887 42.1176 30.9197 41.8881L50.8691 36.9218C52.1782 36.5914 53.1001 35.4164 53.1001 34.0761V17.7363L40.4704 21.3256C40.074 21.4449 39.6591 21.5 39.2443 21.5ZM58.8433 11.2004L54.0957 1.76365C53.8099 1.19451 53.1922 0.864038 52.5561 0.946655L29.5001 3.87498L37.9537 17.8373C38.304 18.4156 39.0046 18.691 39.6591 18.5074L57.903 13.3209C58.8157 13.0547 59.2582 12.0449 58.8433 11.2004ZM4.90443 1.76365L0.156775 11.2004C-0.267287 12.0449 0.184432 13.0547 1.08787 13.3117L19.3318 18.4982C19.9863 18.6818 20.6869 18.4064 21.0372 17.8281L29.5001 3.87498L6.43474 0.946655C5.79865 0.873217 5.19021 1.19451 4.90443 1.76365Z" fill="#92D9BB"/>
</svg>
