<svg width="57" height="57" viewBox="0 0 57 57" fill="none" xmlns="http://www.w3.org/2000/svg">
<path d="M10.6875 10.6875C10.6875 8.79783 11.4382 6.98556 12.7744 5.64936C14.1106 4.31317 15.9228 3.5625 17.8125 3.5625C19.7022 3.5625 21.5144 4.31317 22.8506 5.64936C24.1868 6.98556 24.9375 8.79783 24.9375 10.6875C24.9375 12.5772 24.1868 14.3894 22.8506 15.7256C21.5144 17.0618 19.7022 17.8125 17.8125 17.8125C15.9228 17.8125 14.1106 17.0618 12.7744 15.7256C11.4382 14.3894 10.6875 12.5772 10.6875 10.6875ZM34.8377 16.3305L34.9873 16.4445C36.4989 17.5649 38.3922 18.042 40.2542 17.7716C42.1162 17.5012 43.7956 16.5052 44.926 15.0011C46.0564 13.497 46.5459 11.6068 46.2878 9.74308C46.0297 7.87935 45.0449 6.19337 43.5482 5.05309C42.0516 3.91281 40.1647 3.4108 38.2993 3.65661C36.4339 3.90243 34.7415 4.87611 33.5914 6.36517C32.4412 7.85423 31.9268 9.73778 32.1603 11.6048C32.3938 13.4717 33.3562 15.1706 34.8377 16.3305ZM22.3298 21.375C22.7772 20.5277 23.391 19.7794 24.1343 19.1748C24.8777 18.5702 25.7353 18.1217 26.656 17.8562C27.5767 17.5907 28.5414 17.5137 29.4926 17.6296C30.4437 17.7456 31.3617 18.0523 32.1916 18.5312C33.0215 19.0102 33.7463 19.6516 34.3225 20.4171C34.8988 21.1826 35.3148 22.0565 35.5455 22.9865C35.7762 23.9165 35.817 24.8835 35.6654 25.8296C35.5138 26.7757 35.1729 27.6815 34.6631 28.4929C33.6824 30.0537 32.135 31.1737 30.3459 31.6176C28.5568 32.0615 26.6652 31.7947 25.0687 30.8733C23.4722 29.9519 22.2948 28.4476 21.7841 26.6764C21.2734 24.9052 21.4689 23.005 22.3298 21.375ZM8.90625 21.375H18.4181C17.7838 23.183 17.6456 25.128 18.0177 27.0075C18.3899 28.8871 19.2589 30.6326 20.5343 32.0625H19.5938C17.7569 32.0617 15.9648 32.6289 14.4629 33.6863C12.961 34.7437 11.8227 36.2396 11.2041 37.9691C10.0075 37.4903 8.88766 36.8385 7.88025 36.0347C5.20125 33.8794 3.5625 30.6945 3.5625 26.7188C3.5625 25.3015 4.1255 23.9423 5.12765 22.9401C6.1298 21.938 7.489 21.375 8.90625 21.375ZM37.4062 32.0625C41.2716 32.0625 44.5633 34.5242 45.7959 37.9691C47.0072 37.4739 48.1258 36.8291 49.1198 36.0347C51.7988 33.8794 53.4375 30.6945 53.4375 26.7188C53.4375 25.3015 52.8745 23.9423 51.8724 22.9401C50.8702 21.938 49.511 21.375 48.0938 21.375H38.5819C38.9738 22.4901 39.1875 23.6906 39.1875 24.9375C39.1874 27.5664 38.2184 30.1031 36.4658 32.0625H37.4062ZM42.3474 38.931C42.6075 39.558 42.75 40.2491 42.75 40.9688C42.75 44.9445 41.1148 48.1294 38.4323 50.2847C35.7924 52.4044 32.2513 53.4375 28.5 53.4375C24.7487 53.4375 21.2076 52.4044 18.5677 50.2847C15.8888 48.1294 14.25 44.9445 14.25 40.9688C14.2481 40.2665 14.3851 39.5707 14.6529 38.9216C14.9208 38.2724 15.3144 37.6825 15.811 37.186C16.3075 36.6894 16.8974 36.2958 17.5466 36.0279C18.1957 35.7601 18.8915 35.6231 19.5938 35.625H37.4062C38.4647 35.6248 39.4993 35.9388 40.379 36.5274C41.2587 37.116 41.9438 37.9525 42.3474 38.931Z" fill="#92D9BB"/>
</svg>
