<svg width="52" height="52" viewBox="0 0 52 52" fill="none" xmlns="http://www.w3.org/2000/svg">
<path d="M26 3C13.2971 3 3 13.2971 3 26C3 38.7029 13.2971 49 26 49C38.7029 49 49 38.7029 49 26C49 13.2971 38.7029 3 26 3Z" stroke="#92D9BB" stroke-width="4.3" stroke-linecap="round" stroke-linejoin="round"/>
<path d="M8.22327 40.5958C8.22327 40.5958 13.35 34.05 26 34.05C38.65 34.05 43.779 40.5958 43.779 40.5958M26 26C27.83 26 29.585 25.273 30.879 23.979C32.173 22.685 32.9 20.93 32.9 19.1C32.9 17.27 32.173 15.515 30.879 14.221C29.585 12.927 27.83 12.2 26 12.2C24.17 12.2 22.4149 12.927 21.1209 14.221C19.8269 15.515 19.1 17.27 19.1 19.1C19.1 20.93 19.8269 22.685 21.1209 23.979C22.4149 25.273 24.17 26 26 26Z" stroke="#92D9BB" stroke-width="4.3" stroke-linecap="round" stroke-linejoin="round"/>
</svg>
