<svg width="42" height="42" viewBox="0 0 42 42" fill="none" xmlns="http://www.w3.org/2000/svg">
<path d="M33.229 3.521L38.479 8.771L34.4767 12.775L29.2268 7.525L33.229 3.521ZM14 28H19.25L32.0023 15.2478L26.7522 9.99775L14 22.75V28Z" fill="#92D9BB"/>
<path d="M33.25 33.25H14.2765C14.231 33.25 14.1838 33.2675 14.1383 33.2675C14.0805 33.2675 14.0227 33.2518 13.9633 33.25H8.75V8.75H20.7323L24.2323 5.25H8.75C6.81975 5.25 5.25 6.818 5.25 8.75V33.25C5.25 35.182 6.81975 36.75 8.75 36.75H33.25C34.1783 36.75 35.0685 36.3813 35.7249 35.7249C36.3813 35.0685 36.75 34.1783 36.75 33.25V18.081L33.25 21.581V33.25Z" fill="#92D9BB"/>
</svg>
