<svg width="47" height="47" viewBox="0 0 47 47" fill="none" xmlns="http://www.w3.org/2000/svg">
<g clip-path="url(#clip0_293_534)">
<path d="M38.1875 19.0938C38.1875 23.3072 36.8197 27.1994 34.5156 30.3572L46.1371 41.9879C47.2846 43.1353 47.2846 44.9988 46.1371 46.1463C44.9897 47.2938 43.1262 47.2938 41.9787 46.1463L30.3572 34.5156C27.1994 36.8289 23.3072 38.1875 19.0938 38.1875C8.54629 38.1875 0 29.6412 0 19.0938C0 8.54629 8.54629 0 19.0938 0C29.6412 0 38.1875 8.54629 38.1875 19.0938ZM19.0938 32.3125C20.8297 32.3125 22.5486 31.9706 24.1523 31.3063C25.7561 30.642 27.2133 29.6683 28.4408 28.4408C29.6683 27.2133 30.642 25.7561 31.3063 24.1523C31.9706 22.5486 32.3125 20.8297 32.3125 19.0938C32.3125 17.3578 31.9706 15.6389 31.3063 14.0352C30.642 12.4314 29.6683 10.9742 28.4408 9.74668C27.2133 8.51921 25.7561 7.54552 24.1523 6.88122C22.5486 6.21691 20.8297 5.875 19.0938 5.875C17.3578 5.875 15.6389 6.21691 14.0352 6.88122C12.4314 7.54552 10.9742 8.51921 9.74668 9.74668C8.51921 10.9742 7.54552 12.4314 6.88122 14.0352C6.21691 15.6389 5.875 17.3578 5.875 19.0938C5.875 20.8297 6.21691 22.5486 6.88122 24.1523C7.54552 25.7561 8.51921 27.2133 9.74668 28.4408C10.9742 29.6683 12.4314 30.642 14.0352 31.3063C15.6389 31.9706 17.3578 32.3125 19.0938 32.3125Z" fill="#92D9BB"/>
</g>
<defs>
<clipPath id="clip0_293_534">
<rect width="47" height="47" fill="white"/>
</clipPath>
</defs>
</svg>
